<mxfile host="app.diagrams.net" modified="2024-04-08T08:53:27.841Z" agent="Mozilla/5.0 (Windows NT 10.0; Win64; x64) AppleWebKit/537.36 (KHTML, like Gecko) Chrome/123.0.0.0 Safari/537.36" etag="4HeMhTgVhpELaon4Stku" version="24.2.2" type="github">
  <diagram id="prtHgNgQTEPvFCAcTncT" name="Page-1">
    <mxGraphModel dx="2371" dy="1559" grid="1" gridSize="10" guides="1" tooltips="1" connect="1" arrows="1" fold="1" page="1" pageScale="1" pageWidth="827" pageHeight="1169" math="0" shadow="0">
      <root>
        <mxCell id="0" />
        <mxCell id="1" parent="0" />
        <mxCell id="bxu8vpFEH1Oi9gXyxSed-1" value="HQ Data&amp;nbsp;&lt;div&gt;(ePOS, eStore, SA)&lt;/div&gt;" style="rounded=1;whiteSpace=wrap;html=1;" vertex="1" parent="1">
          <mxGeometry x="-1580" y="-800" width="120" height="60" as="geometry" />
        </mxCell>
        <mxCell id="bxu8vpFEH1Oi9gXyxSed-2" value="Other Global Data Stores&amp;nbsp;&lt;div&gt;(S-health, Runestone etc.)&lt;/div&gt;" style="rounded=1;whiteSpace=wrap;html=1;" vertex="1" parent="1">
          <mxGeometry x="-1580" y="-710" width="120" height="60" as="geometry" />
        </mxCell>
        <mxCell id="bxu8vpFEH1Oi9gXyxSed-3" value="Market Owned Data&lt;div&gt;(Moe Enggage, Loyalty)&lt;/div&gt;" style="rounded=1;whiteSpace=wrap;html=1;" vertex="1" parent="1">
          <mxGeometry x="-1260" y="-800" width="120" height="60" as="geometry" />
        </mxCell>
        <mxCell id="bxu8vpFEH1Oi9gXyxSed-4" value="GCDM 100 Tabel" style="rounded=1;whiteSpace=wrap;html=1;" vertex="1" parent="1">
          <mxGeometry x="-1410" y="-710" width="120" height="60" as="geometry" />
        </mxCell>
      </root>
    </mxGraphModel>
  </diagram>
</mxfile>
